# MagicaVoxel @ ephtracy

# material
mtllib Tile Grass.mtl
usemtl palette

# normals
vn -1 0 0
vn 1 0 0
vn 0 0 1
vn 0 0 -1
vn 0 -1 0
vn 0 1 0

# texcoords
vt 0.146484 0.5
vt 0.541016 0.5
vt 0.548828 0.5
vt 0.560547 0.5
vt 0.591797 0.5

# verts
v -10 0 10
v -10 0 -10
v -10 1 10
v -10 1 -10
v -8 1 7
v -8 1 6
v -8 2 7
v -8 2 6
v -6 1 5
v -6 1 4
v -6 2 5
v -6 2 4
v -5 1 7
v -5 1 6
v -5 2 7
v -5 2 6
v -4 1 -4
v -4 1 -5
v -4 2 -4
v -4 2 -5
v -2 1 -5
v -2 1 -7
v -2 2 -5
v -2 2 -7
v -1 1 -4
v -1 1 -5
v -1 1 -7
v -1 1 -8
v -1 2 -4
v -1 2 -5
v -1 2 -7
v -1 2 -8
v -1 3 -5
v -1 3 -7
v 0 1 -3
v 0 1 -4
v 0 2 -3
v 0 2 -4
v 1 1 -2
v 1 1 -3
v 1 1 -8
v 1 1 -9
v 1 2 -2
v 1 2 -3
v 1 2 -5
v 1 2 -8
v 1 2 -9
v 1 3 -3
v 1 3 -5
v 2 1 -7
v 2 1 -8
v 2 2 -5
v 2 2 -7
v 2 2 -8
v 2 3 -5
v 2 3 -8
v 3 1 -8
v 3 1 -9
v 3 3 -5
v 3 3 -8
v 3 3 -9
v 3 4 -5
v 3 4 -8
v 6 1 -2
v 6 1 -3
v 6 2 -2
v 6 2 -3
v 8 1 10
v 8 1 8
v 8 2 10
v 8 2 9
v 8 2 8
v 8 3 9
v 8 3 8
v -7 1 7
v -7 1 6
v -7 2 7
v -7 2 6
v -5 1 5
v -5 1 4
v -5 2 5
v -5 2 4
v -4 1 7
v -4 1 6
v -4 2 7
v -4 2 6
v -3 1 -4
v -3 1 -5
v -3 2 -4
v -3 2 -5
v 1 1 -7
v 1 1 -8
v 1 2 -5
v 1 2 -7
v 1 2 -8
v 1 3 -5
v 1 3 -7
v 2 1 -8
v 2 1 -9
v 2 2 -8
v 2 2 -9
v 3 1 -2
v 3 1 -3
v 3 2 -2
v 3 2 -3
v 3 2 -4
v 3 3 -3
v 3 3 -4
v 4 1 -3
v 4 1 -4
v 4 2 -3
v 4 2 -4
v 6 1 -4
v 6 1 -5
v 6 1 -8
v 6 1 -9
v 6 3 -4
v 6 3 -5
v 6 3 -8
v 6 3 -9
v 6 4 -5
v 6 4 -8
v 7 1 -2
v 7 1 -3
v 7 1 -5
v 7 1 -8
v 7 2 -2
v 7 2 -3
v 7 3 -5
v 7 3 -8
v 9 2 9
v 9 2 8
v 9 3 9
v 9 3 8
v 10 0 10
v 10 0 -10
v 10 1 10
v 10 1 8
v 10 1 -10
v 10 2 10
v 10 2 8
v -10 0 10
v -10 1 10
v 8 1 10
v 8 2 10
v 10 0 10
v 10 1 10
v 10 2 10
v 8 2 9
v 8 3 9
v 9 2 9
v 9 3 9
v -8 1 7
v -8 2 7
v -7 1 7
v -7 2 7
v -5 1 7
v -5 2 7
v -4 1 7
v -4 2 7
v -6 1 5
v -6 2 5
v -5 1 5
v -5 2 5
v 1 1 -2
v 1 2 -2
v 3 1 -2
v 3 2 -2
v 6 1 -2
v 6 2 -2
v 7 1 -2
v 7 2 -2
v 0 1 -3
v 0 2 -3
v 1 1 -3
v 1 2 -3
v 1 3 -3
v 3 1 -3
v 3 2 -3
v 3 3 -3
v 4 1 -3
v 4 2 -3
v -4 1 -4
v -4 2 -4
v -3 1 -4
v -3 2 -4
v -1 1 -4
v -1 2 -4
v 0 1 -4
v 0 2 -4
v 3 2 -4
v 3 3 -4
v 4 1 -4
v 4 2 -4
v 6 1 -4
v 6 3 -4
v -2 1 -5
v -2 2 -5
v -1 1 -5
v -1 2 -5
v -1 3 -5
v 1 2 -5
v 1 3 -5
v 3 3 -5
v 3 4 -5
v 6 1 -5
v 6 3 -5
v 6 4 -5
v 7 1 -5
v 7 3 -5
v 1 1 -8
v 1 2 -8
v 2 1 -8
v 2 2 -8
v 8 1 8
v 8 2 8
v 8 3 8
v 9 2 8
v 9 3 8
v 10 1 8
v 10 2 8
v -8 1 6
v -8 2 6
v -7 1 6
v -7 2 6
v -5 1 6
v -5 2 6
v -4 1 6
v -4 2 6
v -6 1 4
v -6 2 4
v -5 1 4
v -5 2 4
v 6 1 -3
v 6 2 -3
v 7 1 -3
v 7 2 -3
v -4 1 -5
v -4 2 -5
v -3 1 -5
v -3 2 -5
v 1 2 -5
v 1 3 -5
v 2 2 -5
v 2 3 -5
v -2 1 -7
v -2 2 -7
v -1 1 -7
v -1 2 -7
v -1 3 -7
v 1 1 -7
v 1 2 -7
v 1 3 -7
v 2 1 -7
v 2 2 -7
v -1 1 -8
v -1 2 -8
v 1 1 -8
v 1 2 -8
v 2 1 -8
v 2 2 -8
v 2 3 -8
v 3 1 -8
v 3 3 -8
v 3 4 -8
v 6 1 -8
v 6 3 -8
v 6 4 -8
v 7 1 -8
v 7 3 -8
v 1 1 -9
v 1 2 -9
v 2 1 -9
v 2 2 -9
v 3 1 -9
v 3 3 -9
v 6 1 -9
v 6 3 -9
v -10 0 -10
v -10 1 -10
v 10 0 -10
v 10 1 -10
v -10 0 10
v 10 0 10
v -3 0 7
v 3 0 7
v -4 0 6
v -3 0 6
v 3 0 6
v 4 0 6
v -5 0 5
v -4 0 5
v 4 0 5
v 5 0 5
v -6 0 4
v -5 0 4
v 5 0 4
v 6 0 4
v -7 0 3
v -6 0 3
v 6 0 3
v 7 0 3
v -7 0 -3
v -6 0 -3
v 6 0 -3
v 7 0 -3
v -6 0 -4
v -5 0 -4
v 5 0 -4
v 6 0 -4
v -5 0 -5
v -4 0 -5
v 4 0 -5
v 5 0 -5
v -4 0 -6
v -3 0 -6
v 3 0 -6
v 4 0 -6
v -3 0 -7
v 3 0 -7
v -10 0 -10
v 10 0 -10
v -10 1 10
v 8 1 10
v 8 1 8
v 10 1 8
v -8 1 7
v -7 1 7
v -5 1 7
v -4 1 7
v -3 1 7
v 3 1 7
v -8 1 6
v -7 1 6
v -5 1 6
v -4 1 6
v -3 1 6
v 3 1 6
v 4 1 6
v -6 1 5
v -5 1 5
v -4 1 5
v 4 1 5
v 5 1 5
v -6 1 4
v -5 1 4
v 5 1 4
v 6 1 4
v -7 1 3
v -6 1 3
v 6 1 3
v 7 1 3
v 1 1 -2
v 3 1 -2
v 6 1 -2
v 7 1 -2
v -7 1 -3
v -6 1 -3
v 0 1 -3
v 1 1 -3
v 3 1 -3
v 4 1 -3
v 6 1 -3
v 7 1 -3
v -6 1 -4
v -5 1 -4
v -4 1 -4
v -3 1 -4
v -1 1 -4
v 0 1 -4
v 4 1 -4
v 6 1 -4
v -5 1 -5
v -4 1 -5
v -3 1 -5
v -2 1 -5
v -1 1 -5
v 6 1 -5
v 7 1 -5
v -4 1 -6
v -3 1 -6
v -3 1 -7
v -2 1 -7
v -1 1 -7
v 1 1 -7
v 2 1 -7
v -1 1 -8
v 1 1 -8
v 2 1 -8
v 3 1 -8
v 6 1 -8
v 7 1 -8
v 1 1 -9
v 2 1 -9
v 3 1 -9
v 6 1 -9
v -10 1 -10
v 10 1 -10
v 8 2 10
v 10 2 10
v 8 2 9
v 9 2 9
v 9 2 8
v 10 2 8
v -8 2 7
v -7 2 7
v -5 2 7
v -4 2 7
v -8 2 6
v -7 2 6
v -5 2 6
v -4 2 6
v -6 2 5
v -5 2 5
v -6 2 4
v -5 2 4
v 1 2 -2
v 3 2 -2
v 6 2 -2
v 7 2 -2
v 0 2 -3
v 1 2 -3
v 3 2 -3
v 4 2 -3
v 6 2 -3
v 7 2 -3
v -4 2 -4
v -3 2 -4
v -1 2 -4
v 0 2 -4
v 3 2 -4
v 4 2 -4
v -4 2 -5
v -3 2 -5
v -2 2 -5
v -1 2 -5
v 1 2 -5
v 2 2 -5
v -2 2 -7
v -1 2 -7
v 1 2 -7
v 2 2 -7
v -1 2 -8
v 1 2 -8
v 2 2 -8
v 1 2 -9
v 2 2 -9
v 8 3 9
v 9 3 9
v 8 3 8
v 9 3 8
v 1 3 -3
v 3 3 -3
v 2 3 -4
v 3 3 -4
v 6 3 -4
v -1 3 -5
v 1 3 -5
v 2 3 -5
v 3 3 -5
v 6 3 -5
v 7 3 -5
v -1 3 -7
v 1 3 -7
v 2 3 -8
v 3 3 -8
v 6 3 -8
v 7 3 -8
v 3 3 -9
v 6 3 -9
v 3 4 -5
v 6 4 -5
v 3 4 -8
v 6 4 -8

# faces
f 3/5/1 2/5/1 1/5/1
f 4/5/1 2/5/1 3/5/1
f 7/1/1 6/1/1 5/1/1
f 8/1/1 6/1/1 7/1/1
f 11/1/1 10/1/1 9/1/1
f 12/1/1 10/1/1 11/1/1
f 15/1/1 14/1/1 13/1/1
f 16/1/1 14/1/1 15/1/1
f 19/1/1 18/1/1 17/1/1
f 20/1/1 18/1/1 19/1/1
f 23/3/1 22/3/1 21/3/1
f 24/3/1 22/3/1 23/3/1
f 29/3/1 26/3/1 25/3/1
f 30/3/1 26/3/1 29/3/1
f 31/3/1 28/3/1 27/3/1
f 32/3/1 28/3/1 31/3/1
f 33/3/1 31/3/1 30/3/1
f 34/3/1 31/3/1 33/3/1
f 37/3/1 36/3/1 35/3/1
f 38/3/1 36/3/1 37/3/1
f 43/3/1 40/3/1 39/3/1
f 44/3/1 40/3/1 43/3/1
f 46/1/1 42/1/1 41/1/1
f 47/1/1 42/1/1 46/1/1
f 48/3/1 45/3/1 44/3/1
f 49/3/1 45/3/1 48/3/1
f 53/4/1 51/4/1 50/4/1
f 54/4/1 51/4/1 53/4/1
f 55/4/1 53/4/1 52/4/1
f 55/4/1 54/4/1 53/4/1
f 56/4/1 54/4/1 55/4/1
f 60/4/1 58/4/1 57/4/1
f 61/4/1 58/4/1 60/4/1
f 62/4/1 60/4/1 59/4/1
f 63/4/1 60/4/1 62/4/1
f 66/1/1 65/1/1 64/1/1
f 67/1/1 65/1/1 66/1/1
f 70/4/1 69/4/1 68/4/1
f 71/4/1 69/4/1 70/4/1
f 72/4/1 69/4/1 71/4/1
f 73/1/1 72/1/1 71/1/1
f 74/1/1 72/1/1 73/1/1
f 75/1/2 76/1/2 77/1/2
f 77/1/2 76/1/2 78/1/2
f 79/1/2 80/1/2 81/1/2
f 81/1/2 80/1/2 82/1/2
f 83/1/2 84/1/2 85/1/2
f 85/1/2 84/1/2 86/1/2
f 87/1/2 88/1/2 89/1/2
f 89/1/2 88/1/2 90/1/2
f 91/3/2 92/3/2 94/3/2
f 94/3/2 92/3/2 95/3/2
f 93/3/2 94/3/2 96/3/2
f 96/3/2 94/3/2 97/3/2
f 98/1/2 99/1/2 100/1/2
f 100/1/2 99/1/2 101/1/2
f 102/3/2 103/3/2 104/3/2
f 104/3/2 103/3/2 105/3/2
f 105/3/2 106/3/2 107/3/2
f 107/3/2 106/3/2 108/3/2
f 109/3/2 110/3/2 111/3/2
f 111/3/2 110/3/2 112/3/2
f 113/4/2 114/4/2 117/4/2
f 117/4/2 114/4/2 118/4/2
f 115/4/2 116/4/2 119/4/2
f 119/4/2 116/4/2 120/4/2
f 118/4/2 119/4/2 121/4/2
f 121/4/2 119/4/2 122/4/2
f 123/1/2 124/1/2 127/1/2
f 127/1/2 124/1/2 128/1/2
f 125/4/2 126/4/2 129/4/2
f 129/4/2 126/4/2 130/4/2
f 131/1/2 132/1/2 133/1/2
f 133/1/2 132/1/2 134/1/2
f 135/5/2 136/5/2 137/5/2
f 137/5/2 136/5/2 138/5/2
f 138/5/2 136/5/2 139/5/2
f 137/4/2 138/4/2 140/4/2
f 140/4/2 138/4/2 141/4/2
f 144/5/3 143/5/3 142/5/3
f 146/5/3 144/5/3 142/5/3
f 147/4/3 145/4/3 144/4/3
f 147/5/3 144/5/3 146/5/3
f 148/4/3 145/4/3 147/4/3
f 151/1/3 150/1/3 149/1/3
f 152/1/3 150/1/3 151/1/3
f 155/1/3 154/1/3 153/1/3
f 156/1/3 154/1/3 155/1/3
f 159/1/3 158/1/3 157/1/3
f 160/1/3 158/1/3 159/1/3
f 163/1/3 162/1/3 161/1/3
f 164/1/3 162/1/3 163/1/3
f 167/3/3 166/3/3 165/3/3
f 168/3/3 166/3/3 167/3/3
f 171/1/3 170/1/3 169/1/3
f 172/1/3 170/1/3 171/1/3
f 175/3/3 174/3/3 173/3/3
f 176/3/3 174/3/3 175/3/3
f 179/3/3 177/3/3 176/3/3
f 180/3/3 177/3/3 179/3/3
f 181/3/3 179/3/3 178/3/3
f 182/3/3 179/3/3 181/3/3
f 185/1/3 184/1/3 183/1/3
f 186/1/3 184/1/3 185/1/3
f 189/3/3 188/3/3 187/3/3
f 190/3/3 188/3/3 189/3/3
f 194/4/3 192/4/3 191/4/3
f 195/4/3 194/4/3 193/4/3
f 196/4/3 192/4/3 194/4/3
f 196/4/3 194/4/3 195/4/3
f 199/3/3 198/3/3 197/3/3
f 200/3/3 198/3/3 199/3/3
f 202/3/3 201/3/3 200/3/3
f 203/3/3 201/3/3 202/3/3
f 207/4/3 205/4/3 204/4/3
f 208/4/3 205/4/3 207/4/3
f 209/4/3 207/4/3 206/4/3
f 210/4/3 207/4/3 209/4/3
f 213/1/3 212/1/3 211/1/3
f 214/1/3 212/1/3 213/1/3
f 215/4/4 216/4/4 218/4/4
f 216/1/4 217/1/4 218/1/4
f 218/1/4 217/1/4 219/1/4
f 215/4/4 218/4/4 220/4/4
f 220/4/4 218/4/4 221/4/4
f 222/1/4 223/1/4 224/1/4
f 224/1/4 223/1/4 225/1/4
f 226/1/4 227/1/4 228/1/4
f 228/1/4 227/1/4 229/1/4
f 230/1/4 231/1/4 232/1/4
f 232/1/4 231/1/4 233/1/4
f 234/1/4 235/1/4 236/1/4
f 236/1/4 235/1/4 237/1/4
f 238/1/4 239/1/4 240/1/4
f 240/1/4 239/1/4 241/1/4
f 242/3/4 243/3/4 244/3/4
f 244/3/4 243/3/4 245/3/4
f 246/3/4 247/3/4 248/3/4
f 248/3/4 247/3/4 249/3/4
f 249/3/4 250/3/4 252/3/4
f 252/3/4 250/3/4 253/3/4
f 251/3/4 252/3/4 254/3/4
f 254/3/4 252/3/4 255/3/4
f 256/3/4 257/3/4 258/3/4
f 258/3/4 257/3/4 259/3/4
f 260/4/4 261/4/4 263/4/4
f 261/4/4 262/4/4 263/4/4
f 263/4/4 262/4/4 264/4/4
f 264/4/4 265/4/4 267/4/4
f 267/4/4 265/4/4 268/4/4
f 266/4/4 267/4/4 269/4/4
f 269/4/4 267/4/4 270/4/4
f 271/1/4 272/1/4 273/1/4
f 273/1/4 272/1/4 274/1/4
f 275/4/4 276/4/4 277/4/4
f 277/4/4 276/4/4 278/4/4
f 279/5/4 280/5/4 281/5/4
f 281/5/4 280/5/4 282/5/4
f 285/5/5 284/5/5 283/5/5
f 286/5/5 284/5/5 285/5/5
f 287/5/5 285/5/5 283/5/5
f 288/2/5 286/2/5 285/2/5
f 288/5/5 285/5/5 287/5/5
f 289/5/5 284/5/5 286/5/5
f 289/2/5 286/2/5 288/2/5
f 290/5/5 284/5/5 289/5/5
f 291/5/5 287/5/5 283/5/5
f 292/2/5 288/2/5 287/2/5
f 292/5/5 287/5/5 291/5/5
f 292/2/5 289/2/5 288/2/5
f 292/2/5 290/2/5 289/2/5
f 293/5/5 284/5/5 290/5/5
f 293/2/5 290/2/5 292/2/5
f 294/5/5 284/5/5 293/5/5
f 295/5/5 291/5/5 283/5/5
f 296/2/5 292/2/5 291/2/5
f 296/5/5 291/5/5 295/5/5
f 296/2/5 293/2/5 292/2/5
f 296/2/5 294/2/5 293/2/5
f 297/5/5 284/5/5 294/5/5
f 297/2/5 294/2/5 296/2/5
f 298/5/5 284/5/5 297/5/5
f 299/5/5 295/5/5 283/5/5
f 300/2/5 296/2/5 295/2/5
f 300/5/5 295/5/5 299/5/5
f 300/2/5 297/2/5 296/2/5
f 300/2/5 298/2/5 297/2/5
f 301/5/5 284/5/5 298/5/5
f 301/2/5 298/2/5 300/2/5
f 302/5/5 284/5/5 301/5/5
f 303/5/5 299/5/5 283/5/5
f 303/2/5 300/2/5 299/2/5
f 303/2/5 302/2/5 301/2/5
f 303/2/5 301/2/5 300/2/5
f 304/2/5 302/2/5 303/2/5
f 305/2/5 302/2/5 304/2/5
f 306/5/5 284/5/5 302/5/5
f 306/2/5 302/2/5 305/2/5
f 307/2/5 305/2/5 304/2/5
f 307/5/5 304/5/5 303/5/5
f 308/2/5 305/2/5 307/2/5
f 309/2/5 305/2/5 308/2/5
f 310/5/5 306/5/5 305/5/5
f 310/2/5 305/2/5 309/2/5
f 311/2/5 309/2/5 308/2/5
f 311/5/5 308/5/5 307/5/5
f 312/2/5 309/2/5 311/2/5
f 313/2/5 309/2/5 312/2/5
f 314/5/5 310/5/5 309/5/5
f 314/2/5 309/2/5 313/2/5
f 315/2/5 313/2/5 312/2/5
f 315/5/5 312/5/5 311/5/5
f 316/2/5 313/2/5 315/2/5
f 317/2/5 313/2/5 316/2/5
f 318/5/5 314/5/5 313/5/5
f 318/2/5 313/2/5 317/2/5
f 319/2/5 317/2/5 316/2/5
f 319/5/5 316/5/5 315/5/5
f 320/5/5 318/5/5 317/5/5
f 320/2/5 317/2/5 319/2/5
f 321/5/5 303/5/5 283/5/5
f 321/5/5 307/5/5 303/5/5
f 321/5/5 320/5/5 319/5/5
f 321/5/5 319/5/5 315/5/5
f 321/5/5 315/5/5 311/5/5
f 321/5/5 311/5/5 307/5/5
f 322/5/5 284/5/5 306/5/5
f 322/5/5 320/5/5 321/5/5
f 322/5/5 318/5/5 320/5/5
f 322/5/5 310/5/5 314/5/5
f 322/5/5 314/5/5 318/5/5
f 322/5/5 306/5/5 310/5/5
f 323/5/6 324/5/6 325/5/6
f 323/5/6 325/5/6 327/5/6
f 325/5/6 326/5/6 327/5/6
f 327/5/6 326/5/6 328/5/6
f 328/5/6 326/5/6 329/5/6
f 329/5/6 326/5/6 330/5/6
f 330/5/6 326/5/6 331/5/6
f 331/5/6 326/5/6 332/5/6
f 323/5/6 327/5/6 333/5/6
f 328/5/6 329/5/6 334/5/6
f 334/5/6 329/5/6 335/5/6
f 330/5/6 331/5/6 336/5/6
f 331/2/6 332/2/6 337/2/6
f 336/5/6 331/5/6 337/5/6
f 332/5/6 326/5/6 338/5/6
f 337/2/6 332/2/6 338/2/6
f 338/5/6 326/5/6 339/5/6
f 335/5/6 336/5/6 340/5/6
f 334/5/6 335/5/6 340/5/6
f 333/5/6 334/5/6 340/5/6
f 340/5/6 336/5/6 341/5/6
f 336/2/6 337/2/6 342/2/6
f 341/5/6 336/5/6 342/5/6
f 338/2/6 339/2/6 342/2/6
f 337/2/6 338/2/6 342/2/6
f 339/5/6 326/5/6 343/5/6
f 342/2/6 339/2/6 343/2/6
f 343/5/6 326/5/6 344/5/6
f 333/5/6 340/5/6 345/5/6
f 341/2/6 342/2/6 346/2/6
f 343/2/6 344/2/6 346/2/6
f 342/2/6 343/2/6 346/2/6
f 344/5/6 326/5/6 347/5/6
f 346/2/6 344/2/6 347/2/6
f 347/5/6 326/5/6 348/5/6
f 333/5/6 345/5/6 349/5/6
f 345/2/6 346/2/6 350/2/6
f 349/5/6 345/5/6 350/5/6
f 346/2/6 347/2/6 350/2/6
f 347/2/6 348/2/6 350/2/6
f 348/5/6 326/5/6 351/5/6
f 350/2/6 348/2/6 351/2/6
f 351/5/6 326/5/6 352/5/6
f 349/2/6 350/2/6 353/2/6
f 350/2/6 351/2/6 353/2/6
f 351/2/6 352/2/6 353/2/6
f 353/2/6 352/2/6 354/2/6
f 354/2/6 352/2/6 355/2/6
f 352/5/6 326/5/6 356/5/6
f 355/2/6 352/2/6 356/2/6
f 333/5/6 349/5/6 357/5/6
f 349/2/6 353/2/6 357/2/6
f 357/2/6 353/2/6 358/2/6
f 358/2/6 353/2/6 359/2/6
f 359/2/6 353/2/6 360/2/6
f 354/2/6 355/2/6 361/2/6
f 361/2/6 355/2/6 362/2/6
f 362/2/6 355/2/6 363/2/6
f 356/5/6 326/5/6 364/5/6
f 357/5/6 358/5/6 365/5/6
f 358/2/6 359/2/6 365/2/6
f 365/2/6 359/2/6 366/2/6
f 366/2/6 359/2/6 367/2/6
f 367/2/6 359/2/6 368/2/6
f 368/2/6 359/2/6 369/2/6
f 369/2/6 359/2/6 370/2/6
f 362/2/6 363/2/6 371/2/6
f 363/5/6 364/5/6 372/5/6
f 371/2/6 363/2/6 372/2/6
f 365/5/6 366/5/6 373/5/6
f 366/2/6 367/2/6 373/2/6
f 373/2/6 367/2/6 374/2/6
f 368/2/6 369/2/6 375/2/6
f 375/2/6 369/2/6 376/2/6
f 376/2/6 369/2/6 377/2/6
f 372/5/6 364/5/6 378/5/6
f 364/5/6 326/5/6 379/5/6
f 378/5/6 364/5/6 379/5/6
f 373/5/6 374/5/6 380/5/6
f 375/2/6 376/2/6 380/2/6
f 374/2/6 375/2/6 380/2/6
f 380/2/6 376/2/6 381/2/6
f 380/5/6 381/5/6 382/5/6
f 381/2/6 376/2/6 382/2/6
f 382/2/6 376/2/6 383/2/6
f 382/5/6 383/5/6 387/5/6
f 383/5/6 384/5/6 387/5/6
f 385/5/6 386/5/6 388/5/6
f 388/5/6 386/5/6 389/5/6
f 379/5/6 326/5/6 392/5/6
f 387/5/6 388/5/6 393/5/6
f 389/5/6 390/5/6 394/5/6
f 394/5/6 390/5/6 395/5/6
f 391/5/6 392/5/6 396/5/6
f 387/5/6 393/5/6 397/5/6
f 395/5/6 396/5/6 397/5/6
f 323/5/6 333/5/6 397/5/6
f 333/5/6 357/5/6 397/5/6
f 393/5/6 394/5/6 397/5/6
f 357/5/6 365/5/6 397/5/6
f 365/5/6 373/5/6 397/5/6
f 373/5/6 380/5/6 397/5/6
f 394/5/6 395/5/6 397/5/6
f 380/5/6 382/5/6 397/5/6
f 382/5/6 387/5/6 397/5/6
f 396/5/6 392/5/6 398/5/6
f 397/5/6 396/5/6 398/5/6
f 392/5/6 326/5/6 398/5/6
f 399/4/6 400/4/6 401/4/6
f 401/4/6 400/4/6 402/4/6
f 402/4/6 400/4/6 403/4/6
f 403/4/6 400/4/6 404/4/6
f 405/1/6 406/1/6 409/1/6
f 409/1/6 406/1/6 410/1/6
f 407/1/6 408/1/6 411/1/6
f 411/1/6 408/1/6 412/1/6
f 413/1/6 414/1/6 415/1/6
f 415/1/6 414/1/6 416/1/6
f 417/3/6 418/3/6 422/3/6
f 422/3/6 418/3/6 423/3/6
f 419/1/6 420/1/6 425/1/6
f 425/1/6 420/1/6 426/1/6
f 421/3/6 422/3/6 430/3/6
f 423/3/6 424/3/6 431/3/6
f 431/3/6 424/3/6 432/3/6
f 427/1/6 428/1/6 433/1/6
f 433/1/6 428/1/6 434/1/6
f 429/3/6 430/3/6 436/3/6
f 430/3/6 422/3/6 437/3/6
f 436/3/6 430/3/6 437/3/6
f 435/3/6 436/3/6 439/3/6
f 439/3/6 436/3/6 440/3/6
f 437/3/6 438/3/6 441/3/6
f 441/3/6 438/3/6 442/3/6
f 440/3/6 441/3/6 443/3/6
f 443/3/6 441/3/6 444/3/6
f 444/1/6 445/1/6 446/1/6
f 446/1/6 445/1/6 447/1/6
f 448/1/6 449/1/6 450/1/6
f 450/1/6 449/1/6 451/1/6
f 452/3/6 453/3/6 454/3/6
f 454/3/6 453/3/6 455/3/6
f 452/3/6 454/3/6 458/3/6
f 455/4/6 456/4/6 459/4/6
f 454/4/6 455/4/6 459/4/6
f 458/3/6 454/3/6 459/3/6
f 459/4/6 456/4/6 460/4/6
f 460/4/6 456/4/6 461/4/6
f 457/3/6 458/3/6 463/3/6
f 463/3/6 458/3/6 464/3/6
f 459/4/6 460/4/6 465/4/6
f 465/4/6 460/4/6 466/4/6
f 461/4/6 462/4/6 467/4/6
f 467/4/6 462/4/6 468/4/6
f 466/4/6 467/4/6 469/4/6
f 469/4/6 467/4/6 470/4/6
f 471/4/6 472/4/6 473/4/6
f 473/4/6 472/4/6 474/4/6
